STARTFONT 2.1
COMMENT The X10 name for this font was "/usr/theorem/fonts/symfont2.onx"
FONT /usr/theorem/fonts/symfont2.onx.bdf
SIZE 11 75 75
FONTBOUNDINGBOX 12 13 0 0
STARTPROPERTIES 2
FONT_DESCENT 3
FONT_ASCENT 10
ENDPROPERTIES
CHARS 128
STARTCHAR C000
ENCODING 0
SWIDTH 1 0
DWIDTH 12 0
BBX 12 13 0 -3
BITMAP
0000
0000
0000
0000
0000
2700
1c80
0000
0000
0000
0000
0000
0000
ENDCHAR
STARTCHAR C001
ENCODING 1
SWIDTH 1 0
DWIDTH 12 0
BBX 12 13 0 -3
BITMAP
0000
1e00
0100
1f00
2100
1e80
0000
0000
0000
0000
0000
0000
0000
ENDCHAR
STARTCHAR C002
ENCODING 2
SWIDTH 1 0
DWIDTH 12 0
BBX 12 13 0 -3
BITMAP
2000
2000
2f00
3080
3080
2f00
0000
0000
0000
0000
0000
0000
0000
ENDCHAR
STARTCHAR C003
ENCODING 3
SWIDTH 1 0
DWIDTH 12 0
BBX 12 13 0 -3
BITMAP
0000
0000
1e00
2000
2000
1e00
0000
0000
0000
0000
0000
0000
0000
ENDCHAR
STARTCHAR C004
ENCODING 4
SWIDTH 1 0
DWIDTH 12 0
BBX 12 13 0 -3
BITMAP
0080
0080
1e80
2180
2180
1e80
0000
0000
0000
0000
0000
0000
0000
ENDCHAR
STARTCHAR C005
ENCODING 5
SWIDTH 1 0
DWIDTH 12 0
BBX 12 13 0 -3
BITMAP
0000
1f00
2080
3f80
2000
1f80
0000
0000
0000
0000
0000
0000
0000
ENDCHAR
STARTCHAR C006
ENCODING 6
SWIDTH 1 0
DWIDTH 12 0
BBX 12 13 0 -3
BITMAP
0c00
1200
1000
3800
1000
1000
0000
0000
0000
0000
0000
0000
0000
ENDCHAR
STARTCHAR C007
ENCODING 7
SWIDTH 1 0
DWIDTH 12 0
BBX 12 13 0 -3
BITMAP
0000
0000
1f00
2080
2080
1f80
0080
1f00
0000
0000
0000
0000
0000
ENDCHAR
STARTCHAR C010
ENCODING 8
SWIDTH 1 0
DWIDTH 12 0
BBX 12 13 0 -3
BITMAP
2000
2000
2f00
3080
2080
2080
0000
0000
0000
0000
0000
0000
0000
ENDCHAR
STARTCHAR C011
ENCODING 9
SWIDTH 1 0
DWIDTH 12 0
BBX 12 13 0 -3
BITMAP
0800
0000
1800
0800
0800
1c00
0000
0000
0000
0000
0000
0000
0000
ENDCHAR
STARTCHAR C012
ENCODING 10
SWIDTH 1 0
DWIDTH 12 0
BBX 12 13 0 -3
BITMAP
0100
0000
0100
0100
0100
0100
0900
0600
0000
0000
0000
0000
0000
ENDCHAR
STARTCHAR C013
ENCODING 11
SWIDTH 1 0
DWIDTH 12 0
BBX 12 13 0 -3
BITMAP
2000
2600
2800
3c00
3200
2100
0000
0000
0000
0000
0000
0000
0000
ENDCHAR
STARTCHAR C014
ENCODING 12
SWIDTH 1 0
DWIDTH 12 0
BBX 12 13 0 -3
BITMAP
0c00
0400
0400
0400
0400
0e00
0000
0000
0000
0000
0000
0000
0000
ENDCHAR
STARTCHAR C015
ENCODING 13
SWIDTH 1 0
DWIDTH 12 0
BBX 12 13 0 -3
BITMAP
0000
0000
2b00
3480
2480
2480
0000
0000
0000
0000
0000
0000
0000
ENDCHAR
STARTCHAR C016
ENCODING 14
SWIDTH 1 0
DWIDTH 12 0
BBX 12 13 0 -3
BITMAP
0000
0000
2f00
3080
2080
2080
0000
0000
0000
0000
0000
0000
0000
ENDCHAR
STARTCHAR C017
ENCODING 15
SWIDTH 1 0
DWIDTH 12 0
BBX 12 13 0 -3
BITMAP
0000
0000
1f00
2080
2080
1f00
0000
0000
0000
0000
0000
0000
0000
ENDCHAR
STARTCHAR C020
ENCODING 16
SWIDTH 1 0
DWIDTH 12 0
BBX 12 13 0 -3
BITMAP
0000
0000
3f00
2080
2080
3f00
2000
2000
0000
0000
0000
0000
0000
ENDCHAR
STARTCHAR C021
ENCODING 17
SWIDTH 1 0
DWIDTH 12 0
BBX 12 13 0 -3
BITMAP
0000
0000
1f80
2080
2080
1f80
0080
0080
0000
0000
0000
0000
0000
ENDCHAR
STARTCHAR C022
ENCODING 18
SWIDTH 1 0
DWIDTH 12 0
BBX 12 13 0 -3
BITMAP
0000
0000
2e00
3100
2000
2000
0000
0000
0000
0000
0000
0000
0000
ENDCHAR
STARTCHAR C023
ENCODING 19
SWIDTH 1 0
DWIDTH 12 0
BBX 12 13 0 -3
BITMAP
0000
1f80
2000
1f00
0080
3f00
0000
0000
0000
0000
0000
0000
0000
ENDCHAR
STARTCHAR C024
ENCODING 20
SWIDTH 1 0
DWIDTH 12 0
BBX 12 13 0 -3
BITMAP
0800
1c00
0800
0800
0a00
0400
0000
0000
0000
0000
0000
0000
0000
ENDCHAR
STARTCHAR C025
ENCODING 21
SWIDTH 1 0
DWIDTH 12 0
BBX 12 13 0 -3
BITMAP
0000
0000
1080
1080
1180
0e80
0000
0000
0000
0000
0000
0000
0000
ENDCHAR
STARTCHAR C026
ENCODING 22
SWIDTH 1 0
DWIDTH 12 0
BBX 12 13 0 -3
BITMAP
0000
0000
2080
1100
0a00
0400
0000
0000
0000
0000
0000
0000
0000
ENDCHAR
STARTCHAR C027
ENCODING 23
SWIDTH 1 0
DWIDTH 12 0
BBX 12 13 0 -3
BITMAP
0000
0000
2080
2480
2a80
1100
0000
0000
0000
0000
0000
0000
0000
ENDCHAR
STARTCHAR C030
ENCODING 24
SWIDTH 1 0
DWIDTH 12 0
BBX 12 13 0 -3
BITMAP
0000
1100
0a00
0400
0a00
1100
0000
0000
0000
0000
0000
0000
0000
ENDCHAR
STARTCHAR C031
ENCODING 25
SWIDTH 1 0
DWIDTH 12 0
BBX 12 13 0 -3
BITMAP
0000
0000
2080
2080
2080
1f80
0100
1e00
0000
0000
0000
0000
0000
ENDCHAR
STARTCHAR C032
ENCODING 26
SWIDTH 1 0
DWIDTH 12 0
BBX 12 13 0 -3
BITMAP
0000
1f00
0200
0400
0800
1f00
0000
0000
0000
0000
0000
0000
0000
ENDCHAR
STARTCHAR C033
ENCODING 27
SWIDTH 1 0
DWIDTH 12 0
BBX 12 13 0 -3
BITMAP
0000
3c00
2000
2000
2000
0000
0000
0000
0000
0000
0000
0000
0000
ENDCHAR
STARTCHAR C034
ENCODING 28
SWIDTH 1 0
DWIDTH 12 0
BBX 12 13 0 -3
BITMAP
0000
3c00
0400
0400
0400
0000
0000
0000
0000
0000
0000
0000
0000
ENDCHAR
STARTCHAR C035
ENCODING 29
SWIDTH 1 0
DWIDTH 12 0
BBX 12 13 0 -3
BITMAP
0000
0000
0e00
1100
2080
3f80
2080
1100
0e00
0000
0000
0000
0000
ENDCHAR
STARTCHAR C036
ENCODING 30
SWIDTH 1 0
DWIDTH 12 0
BBX 12 13 0 -3
BITMAP
0000
0e00
1100
0100
0080
1c80
2280
2100
2100
1e00
0000
0000
0000
ENDCHAR
STARTCHAR C037
ENCODING 31
SWIDTH 1 0
DWIDTH 12 0
BBX 12 13 0 -3
BITMAP
0380
0600
0800
1e00
2900
2900
2500
2500
1e00
0400
1800
3000
0000
ENDCHAR
STARTCHAR C040
ENCODING 32
SWIDTH 1 0
DWIDTH 12 0
BBX 12 13 0 -3
BITMAP
3f00
0500
0500
0500
0500
0500
0500
0500
0500
0500
3f00
0000
0000
ENDCHAR
STARTCHAR !
ENCODING 33
SWIDTH 1 0
DWIDTH 12 0
BBX 12 13 0 -3
BITMAP
0000
0000
0400
2200
2100
3f80
2100
2200
0400
0000
0000
0000
0000
ENDCHAR
STARTCHAR "
ENCODING 34
SWIDTH 1 0
DWIDTH 12 0
BBX 12 13 0 -3
BITMAP
0000
0000
0400
0a00
1100
2080
1100
0a00
0400
0000
0000
0000
0000
ENDCHAR
STARTCHAR #
ENCODING 35
SWIDTH 1 0
DWIDTH 12 0
BBX 12 13 0 -3
BITMAP
0000
0000
0000
1100
2080
3f80
2080
1100
0000
0000
0000
0000
0000
ENDCHAR
STARTCHAR $
ENCODING 36
SWIDTH 1 0
DWIDTH 12 0
BBX 12 13 0 -3
BITMAP
0000
0000
0000
0400
0000
3f80
0000
0000
0000
0000
0000
0000
0000
ENDCHAR
STARTCHAR %
ENCODING 37
SWIDTH 1 0
DWIDTH 12 0
BBX 12 13 0 -3
BITMAP
0400
0400
0400
0400
0400
0400
0400
0400
0400
0400
0400
0780
0000
ENDCHAR
STARTCHAR &
ENCODING 38
SWIDTH 1 0
DWIDTH 12 0
BBX 12 13 0 -3
BITMAP
0000
0000
0e00
1100
2080
2480
2080
1100
0e00
0000
0000
0000
0000
ENDCHAR
STARTCHAR '
ENCODING 39
SWIDTH 1 0
DWIDTH 12 0
BBX 12 13 0 -3
BITMAP
0000
0000
0400
0000
3f80
0000
3f80
0000
0000
0000
0000
0000
0000
ENDCHAR
STARTCHAR (
ENCODING 40
SWIDTH 1 0
DWIDTH 12 0
BBX 12 13 0 -3
BITMAP
0300
0400
0400
0400
0400
0300
0000
0000
0000
0000
0000
0000
0000
ENDCHAR
STARTCHAR )
ENCODING 41
SWIDTH 1 0
DWIDTH 12 0
BBX 12 13 0 -3
BITMAP
1800
0400
0400
0400
0400
1800
0000
0000
0000
0000
0000
0000
0000
ENDCHAR
STARTCHAR *
ENCODING 42
SWIDTH 1 0
DWIDTH 12 0
BBX 12 13 0 -3
BITMAP
0000
0000
0400
0e00
3f80
0e00
1f00
3180
0000
0000
0000
0000
0000
ENDCHAR
STARTCHAR +
ENCODING 43
SWIDTH 1 0
DWIDTH 12 0
BBX 12 13 0 -3
BITMAP
0400
0400
1f00
0400
0400
0000
0000
0000
0000
0000
0000
0000
0000
ENDCHAR
STARTCHAR ,
ENCODING 44
SWIDTH 1 0
DWIDTH 12 0
BBX 12 13 0 -3
BITMAP
0000
0000
0000
3f80
2080
2080
2080
2080
2080
2080
0000
0000
0000
ENDCHAR
STARTCHAR -
ENCODING 45
SWIDTH 1 0
DWIDTH 12 0
BBX 12 13 0 -3
BITMAP
0000
0000
0000
0000
1f80
2000
2000
2000
1f80
0000
0000
0000
0000
ENDCHAR
STARTCHAR .
ENCODING 46
SWIDTH 1 0
DWIDTH 12 0
BBX 12 13 0 -3
BITMAP
0000
0000
0000
2080
2080
2080
2080
2080
2080
3f80
0000
0000
0000
ENDCHAR
STARTCHAR /
ENCODING 47
SWIDTH 1 0
DWIDTH 12 0
BBX 12 13 0 -3
BITMAP
0000
0000
3e00
0100
0080
0080
0100
3e00
0000
3f80
0000
0000
0000
ENDCHAR
STARTCHAR 0
ENCODING 48
SWIDTH 1 0
DWIDTH 12 0
BBX 12 13 0 -3
BITMAP
0000
0000
0000
0000
0000
0000
0000
1c00
2200
2200
2200
1c00
0000
ENDCHAR
STARTCHAR 1
ENCODING 49
SWIDTH 1 0
DWIDTH 12 0
BBX 12 13 0 -3
BITMAP
0000
0000
0000
0000
0000
0000
0000
1000
3000
1000
1000
3800
0000
ENDCHAR
STARTCHAR 2
ENCODING 50
SWIDTH 1 0
DWIDTH 12 0
BBX 12 13 0 -3
BITMAP
0000
0000
0000
0000
0000
0000
0000
3c00
0200
1c00
2000
3e00
0000
ENDCHAR
STARTCHAR 3
ENCODING 51
SWIDTH 1 0
DWIDTH 12 0
BBX 12 13 0 -3
BITMAP
0000
0000
0000
0000
0000
0000
0000
3c00
0200
0c00
0200
3c00
0000
ENDCHAR
STARTCHAR 4
ENCODING 52
SWIDTH 1 0
DWIDTH 12 0
BBX 12 13 0 -3
BITMAP
0000
0000
0000
0000
0000
0000
0000
0400
0c00
1400
3e00
0400
0000
ENDCHAR
STARTCHAR 5
ENCODING 53
SWIDTH 1 0
DWIDTH 12 0
BBX 12 13 0 -3
BITMAP
0000
0000
0000
0000
0000
0000
0000
3e00
2000
3c00
0200
3c00
0000
ENDCHAR
STARTCHAR 6
ENCODING 54
SWIDTH 1 0
DWIDTH 12 0
BBX 12 13 0 -3
BITMAP
0000
0000
0000
0000
0000
0000
0000
1c00
2000
3c00
2200
1c00
0000
ENDCHAR
STARTCHAR 7
ENCODING 55
SWIDTH 1 0
DWIDTH 12 0
BBX 12 13 0 -3
BITMAP
0000
0000
0000
0000
0000
0000
0000
3e00
0200
0400
0800
1000
0000
ENDCHAR
STARTCHAR 8
ENCODING 56
SWIDTH 1 0
DWIDTH 12 0
BBX 12 13 0 -3
BITMAP
0000
0000
0000
0000
0000
0000
0000
1c00
2200
1c00
2200
1c00
0000
ENDCHAR
STARTCHAR 9
ENCODING 57
SWIDTH 1 0
DWIDTH 12 0
BBX 12 13 0 -3
BITMAP
0000
0000
0000
0000
0000
0000
0000
1c00
2200
1e00
0200
3c00
0000
ENDCHAR
STARTCHAR :
ENCODING 58
SWIDTH 1 0
DWIDTH 12 0
BBX 12 13 0 -3
BITMAP
0000
0000
3f80
2080
2080
2080
2080
2080
3f80
0000
0000
0000
0000
ENDCHAR
STARTCHAR ;
ENCODING 59
SWIDTH 1 0
DWIDTH 12 0
BBX 12 13 0 -3
BITMAP
0000
0000
0000
1c80
2700
0000
3f80
0000
0000
0000
0000
0000
0000
ENDCHAR
STARTCHAR <
ENCODING 60
SWIDTH 1 0
DWIDTH 12 0
BBX 12 13 0 -3
BITMAP
0000
0000
0000
0f80
0180
0280
0480
0880
1000
2000
0000
0000
0000
ENDCHAR
STARTCHAR =
ENCODING 61
SWIDTH 1 0
DWIDTH 12 0
BBX 12 13 0 -3
BITMAP
0000
0080
0100
0200
3f80
0400
3f80
0800
1000
2000
0000
0000
0000
ENDCHAR
STARTCHAR >
ENCODING 62
SWIDTH 1 0
DWIDTH 12 0
BBX 12 13 0 -3
BITMAP
0000
0000
0000
2000
1000
0880
0480
0280
0180
0f80
0000
0000
0000
ENDCHAR
STARTCHAR ?
ENCODING 63
SWIDTH 1 0
DWIDTH 12 0
BBX 12 13 0 -3
BITMAP
0000
3000
0c00
0200
0180
0200
0c00
3000
0000
3f80
0000
0000
0000
ENDCHAR
STARTCHAR @
ENCODING 64
SWIDTH 1 0
DWIDTH 12 0
BBX 12 13 0 -3
BITMAP
0000
0000
0400
0800
1f80
2000
1f80
0800
0400
0000
0000
0000
0000
ENDCHAR
STARTCHAR A
ENCODING 65
SWIDTH 1 0
DWIDTH 12 0
BBX 12 13 0 -3
BITMAP
0000
2080
1100
1900
1500
1500
2500
2300
2100
2080
0000
0000
0000
ENDCHAR
STARTCHAR B
ENCODING 66
SWIDTH 1 0
DWIDTH 12 0
BBX 12 13 0 -3
BITMAP
0000
0000
0000
3f80
0400
0400
0400
0400
0400
0400
0000
0000
0000
ENDCHAR
STARTCHAR C
ENCODING 67
SWIDTH 1 0
DWIDTH 12 0
BBX 12 13 0 -3
BITMAP
0000
3f80
0000
0000
0a00
0e00
0a00
0000
0000
3f80
0000
0000
0000
ENDCHAR
STARTCHAR D
ENCODING 68
SWIDTH 1 0
DWIDTH 12 0
BBX 12 13 0 -3
BITMAP
0000
0400
0a00
0a00
1100
1100
1100
2080
2080
3f80
0000
0000
0000
ENDCHAR
STARTCHAR E
ENCODING 69
SWIDTH 1 0
DWIDTH 12 0
BBX 12 13 0 -3
BITMAP
0000
0000
0080
0780
0900
1200
1f00
1400
0800
1780
2000
0000
0000
ENDCHAR
STARTCHAR F
ENCODING 70
SWIDTH 1 0
DWIDTH 12 0
BBX 12 13 0 -3
BITMAP
0000
0e00
0400
1f00
3580
2480
3580
1f00
0400
0e00
0000
0000
0000
ENDCHAR
STARTCHAR G
ENCODING 71
SWIDTH 1 0
DWIDTH 12 0
BBX 12 13 0 -3
BITMAP
0000
0f80
0880
0880
0800
0800
0800
0800
0800
1c00
0000
0000
0000
ENDCHAR
STARTCHAR H
ENCODING 72
SWIDTH 1 0
DWIDTH 12 0
BBX 12 13 0 -3
BITMAP
0000
3f80
2080
2080
1100
1100
1100
0a00
0a00
0400
0000
0000
0000
ENDCHAR
STARTCHAR I
ENCODING 73
SWIDTH 1 0
DWIDTH 12 0
BBX 12 13 0 -3
BITMAP
0000
0000
0000
0000
1b00
2480
1b00
0000
0000
0000
0000
0000
0000
ENDCHAR
STARTCHAR J
ENCODING 74
SWIDTH 1 0
DWIDTH 12 0
BBX 12 13 0 -3
BITMAP
0f00
0800
0800
0800
0800
0800
0800
0800
0800
0800
0800
0800
0800
ENDCHAR
STARTCHAR K
ENCODING 75
SWIDTH 1 0
DWIDTH 12 0
BBX 12 13 0 -3
BITMAP
3c00
0400
0400
0400
0400
0400
0400
0400
0400
0400
0400
0400
0400
ENDCHAR
STARTCHAR L
ENCODING 76
SWIDTH 1 0
DWIDTH 12 0
BBX 12 13 0 -3
BITMAP
0000
0400
0a00
0a00
1100
1100
1100
2080
2080
3180
0000
0000
0000
ENDCHAR
STARTCHAR M
ENCODING 77
SWIDTH 1 0
DWIDTH 12 0
BBX 12 13 0 -3
BITMAP
0000
0000
0000
0000
0f80
0880
1100
1100
2200
3e00
0000
0000
0000
ENDCHAR
STARTCHAR N
ENCODING 78
SWIDTH 1 0
DWIDTH 12 0
BBX 12 13 0 -3
BITMAP
0000
0000
0000
0080
0100
0200
0400
0800
1000
3f80
0000
0000
0000
ENDCHAR
STARTCHAR O
ENCODING 79
SWIDTH 1 0
DWIDTH 12 0
BBX 12 13 0 -3
BITMAP
0000
0000
1100
1100
1100
1100
1100
1100
1100
3f80
0000
0000
0000
ENDCHAR
STARTCHAR P
ENCODING 80
SWIDTH 1 0
DWIDTH 12 0
BBX 12 13 0 -3
BITMAP
0000
3f80
1100
1100
1100
1100
1100
1100
1100
1100
0000
0000
0000
ENDCHAR
STARTCHAR Q
ENCODING 81
SWIDTH 1 0
DWIDTH 12 0
BBX 12 13 0 -3
BITMAP
0000
0e00
1b00
2080
2a80
3f80
2a80
2080
1b00
0e00
0000
0000
0000
ENDCHAR
STARTCHAR R
ENCODING 82
SWIDTH 1 0
DWIDTH 12 0
BBX 12 13 0 -3
BITMAP
0000
0000
0000
3e00
3000
2800
2400
2200
0100
0080
0000
0000
0000
ENDCHAR
STARTCHAR S
ENCODING 83
SWIDTH 1 0
DWIDTH 12 0
BBX 12 13 0 -3
BITMAP
0000
3f80
2080
1000
0800
0400
0800
1000
2080
3f80
0000
0000
0000
ENDCHAR
STARTCHAR T
ENCODING 84
SWIDTH 1 0
DWIDTH 12 0
BBX 12 13 0 -3
BITMAP
0000
0000
0000
0080
0100
2200
2400
2800
3000
3e00
0000
0000
0000
ENDCHAR
STARTCHAR U
ENCODING 85
SWIDTH 1 0
DWIDTH 12 0
BBX 12 13 0 -3
BITMAP
0000
1100
2a80
2a80
0a00
0400
0400
0400
0400
0e00
0000
0000
0000
ENDCHAR
STARTCHAR V
ENCODING 86
SWIDTH 1 0
DWIDTH 12 0
BBX 12 13 0 -3
BITMAP
0000
0000
0080
0080
0080
3f80
0080
0080
0080
0000
0000
0000
0000
ENDCHAR
STARTCHAR W
ENCODING 87
SWIDTH 1 0
DWIDTH 12 0
BBX 12 13 0 -3
BITMAP
0000
0000
0e00
1100
2080
2080
2080
2080
1100
1100
3180
0000
0000
ENDCHAR
STARTCHAR X
ENCODING 88
SWIDTH 1 0
DWIDTH 12 0
BBX 12 13 0 -3
BITMAP
0000
0000
0000
0400
0400
0400
0400
0400
0400
3f80
0000
0000
0000
ENDCHAR
STARTCHAR Y
ENCODING 89
SWIDTH 1 0
DWIDTH 12 0
BBX 12 13 0 -3
BITMAP
0000
0e00
2480
1500
1500
1500
0e00
0400
0400
0e00
0000
0000
0000
ENDCHAR
STARTCHAR Z
ENCODING 90
SWIDTH 1 0
DWIDTH 12 0
BBX 12 13 0 -3
BITMAP
0400
2480
1500
0a00
1500
2480
0400
0000
0000
0000
0000
0000
0000
ENDCHAR
STARTCHAR [
ENCODING 91
SWIDTH 1 0
DWIDTH 12 0
BBX 12 13 0 -3
BITMAP
0000
0000
0000
0400
0e00
1500
2480
0400
0400
0400
0000
0000
0000
ENDCHAR
STARTCHAR \
ENCODING 92
SWIDTH 1 0
DWIDTH 12 0
BBX 12 13 0 -3
BITMAP
0000
0000
0000
0400
0400
0400
2480
1500
0e00
0400
0000
0000
0000
ENDCHAR
STARTCHAR ]
ENCODING 93
SWIDTH 1 0
DWIDTH 12 0
BBX 12 13 0 -3
BITMAP
0000
0000
1c80
2700
0000
3f80
0000
3f80
0000
0000
0000
0000
0000
ENDCHAR
STARTCHAR ^
ENCODING 94
SWIDTH 1 0
DWIDTH 12 0
BBX 12 13 0 -3
BITMAP
0400
0400
0400
0400
0400
0400
0400
0400
0400
0400
0400
3c00
0000
ENDCHAR
STARTCHAR _
ENCODING 95
SWIDTH 1 0
DWIDTH 12 0
BBX 12 13 0 -3
BITMAP
0000
1f00
0000
0000
0000
0000
0000
0000
0000
0000
0000
0000
0000
ENDCHAR
STARTCHAR `
ENCODING 96
SWIDTH 1 0
DWIDTH 12 0
BBX 12 13 0 -3
BITMAP
0000
0000
0000
1c80
2300
0000
1c80
2300
0000
0000
0000
0000
0000
ENDCHAR
STARTCHAR a
ENCODING 97
SWIDTH 1 0
DWIDTH 12 0
BBX 12 13 0 -3
BITMAP
0000
0000
0000
0000
0000
1880
2500
2500
2200
2500
1880
0000
0000
ENDCHAR
STARTCHAR b
ENCODING 98
SWIDTH 1 0
DWIDTH 12 0
BBX 12 13 0 -3
BITMAP
0000
0e00
1100
1080
1100
3e00
2100
2100
2100
3e00
2000
0000
0000
ENDCHAR
STARTCHAR c
ENCODING 99
SWIDTH 1 0
DWIDTH 12 0
BBX 12 13 0 -3
BITMAP
0000
2000
1800
2000
2000
1800
2000
2000
3000
0800
3000
0000
0000
ENDCHAR
STARTCHAR d
ENCODING 100
SWIDTH 1 0
DWIDTH 12 0
BBX 12 13 0 -3
BITMAP
0000
0700
0880
0800
0400
0f00
1080
2080
2080
1f00
0000
0000
0000
ENDCHAR
STARTCHAR e
ENCODING 101
SWIDTH 1 0
DWIDTH 12 0
BBX 12 13 0 -3
BITMAP
0000
0000
0000
1c00
2200
2000
1800
2000
2200
1c00
0000
0000
0000
ENDCHAR
STARTCHAR f
ENCODING 102
SWIDTH 1 0
DWIDTH 12 0
BBX 12 13 0 -3
BITMAP
0000
0000
0000
0000
1700
2480
2480
2480
2480
1f00
0400
0400
0000
ENDCHAR
STARTCHAR g
ENCODING 103
SWIDTH 1 0
DWIDTH 12 0
BBX 12 13 0 -3
BITMAP
0000
0000
0000
0000
0080
1900
2500
0200
0200
0200
0200
0000
0000
ENDCHAR
STARTCHAR h
ENCODING 104
SWIDTH 1 0
DWIDTH 12 0
BBX 12 13 0 -3
BITMAP
0000
0000
0000
0000
3600
1900
1100
2200
2200
2200
0400
0400
0000
ENDCHAR
STARTCHAR i
ENCODING 105
SWIDTH 1 0
DWIDTH 12 0
BBX 12 13 0 -3
BITMAP
0000
0000
0000
0000
0800
0800
1000
1000
1400
0800
0000
0000
0000
ENDCHAR
STARTCHAR j
ENCODING 106
SWIDTH 1 0
DWIDTH 12 0
BBX 12 13 0 -3
BITMAP
0000
0000
0080
0100
1f00
2280
2480
2480
2880
1f00
1000
2000
0000
ENDCHAR
STARTCHAR k
ENCODING 107
SWIDTH 1 0
DWIDTH 12 0
BBX 12 13 0 -3
BITMAP
0000
0000
0000
0000
1200
1400
1800
1400
1200
2100
0000
0000
0000
ENDCHAR
STARTCHAR l
ENCODING 108
SWIDTH 1 0
DWIDTH 12 0
BBX 12 13 0 -3
BITMAP
0000
1000
2800
0400
0400
0600
0a00
1100
1100
2080
0000
0000
0000
ENDCHAR
STARTCHAR m
ENCODING 109
SWIDTH 1 0
DWIDTH 12 0
BBX 12 13 0 -3
BITMAP
0000
0000
0000
0000
1200
1200
1200
1200
1200
2d00
2000
2000
0000
ENDCHAR
STARTCHAR n
ENCODING 110
SWIDTH 1 0
DWIDTH 12 0
BBX 12 13 0 -3
BITMAP
0000
0000
0000
0000
3200
1200
1200
1400
1800
2000
0000
0000
0000
ENDCHAR
STARTCHAR o
ENCODING 111
SWIDTH 1 0
DWIDTH 12 0
BBX 12 13 0 -3
BITMAP
0000
0000
0000
0000
0f00
1080
2080
2080
2100
1e00
0000
0000
0000
ENDCHAR
STARTCHAR p
ENCODING 112
SWIDTH 1 0
DWIDTH 12 0
BBX 12 13 0 -3
BITMAP
0000
0000
0000
0000
2b80
1600
1200
1200
1200
1200
0000
0000
0000
ENDCHAR
STARTCHAR q
ENCODING 113
SWIDTH 1 0
DWIDTH 12 0
BBX 12 13 0 -3
BITMAP
0000
0e00
1100
1100
2100
3f00
2100
2200
2200
1c00
0000
0000
0000
ENDCHAR
STARTCHAR r
ENCODING 114
SWIDTH 1 0
DWIDTH 12 0
BBX 12 13 0 -3
BITMAP
0000
0000
0000
0000
0000
0700
0880
0880
1080
1f00
2000
2000
0000
ENDCHAR
STARTCHAR s
ENCODING 115
SWIDTH 1 0
DWIDTH 12 0
BBX 12 13 0 -3
BITMAP
0000
0000
0000
0000
1f80
2400
2200
2200
2200
1c00
0000
0000
0000
ENDCHAR
STARTCHAR t
ENCODING 116
SWIDTH 1 0
DWIDTH 12 0
BBX 12 13 0 -3
BITMAP
0000
0000
0000
0000
1f80
2400
0400
0400
0800
0800
0000
0000
0000
ENDCHAR
STARTCHAR u
ENCODING 117
SWIDTH 1 0
DWIDTH 12 0
BBX 12 13 0 -3
BITMAP
0000
0000
0000
0000
1080
0880
1080
1080
1100
0e00
0000
0000
0000
ENDCHAR
STARTCHAR v
ENCODING 118
SWIDTH 1 0
DWIDTH 12 0
BBX 12 13 0 -3
BITMAP
0000
0000
0000
0700
0800
1000
1c00
1000
0800
0700
0000
0000
0000
ENDCHAR
STARTCHAR w
ENCODING 119
SWIDTH 1 0
DWIDTH 12 0
BBX 12 13 0 -3
BITMAP
0000
0000
0000
0000
1100
2080
2480
2480
2480
1b00
0000
0000
0000
ENDCHAR
STARTCHAR x
ENCODING 120
SWIDTH 1 0
DWIDTH 12 0
BBX 12 13 0 -3
BITMAP
0000
0000
0000
0000
3080
0900
0600
0c00
1200
1200
2180
0000
0000
ENDCHAR
STARTCHAR y
ENCODING 121
SWIDTH 1 0
DWIDTH 12 0
BBX 12 13 0 -3
BITMAP
0000
0000
0000
0200
0200
2480
2480
2500
1e00
0800
1000
0000
0000
ENDCHAR
STARTCHAR z
ENCODING 122
SWIDTH 1 0
DWIDTH 12 0
BBX 12 13 0 -3
BITMAP
0000
2000
1c00
1000
2000
2000
2000
1000
0800
2800
1000
0000
0000
ENDCHAR
STARTCHAR {
ENCODING 123
SWIDTH 1 0
DWIDTH 12 0
BBX 12 13 0 -3
BITMAP
0000
0080
2080
2100
2100
3f80
2200
2200
2400
0400
0000
0000
0000
ENDCHAR
STARTCHAR |
ENCODING 124
SWIDTH 1 0
DWIDTH 12 0
BBX 12 13 0 -3
BITMAP
0000
0400
0a00
1100
3f80
0000
3f80
0000
3f80
0000
0000
0000
0000
ENDCHAR
STARTCHAR }
ENCODING 125
SWIDTH 1 0
DWIDTH 12 0
BBX 12 13 0 -3
BITMAP
0000
2100
2100
2200
3f80
2200
3f80
2200
2400
2400
0000
0000
0000
ENDCHAR
STARTCHAR ~
ENCODING 126
SWIDTH 1 0
DWIDTH 12 0
BBX 12 13 0 -3
BITMAP
0000
0080
0100
3f80
0200
3f80
0800
3f80
1000
2000
0000
0000
0000
ENDCHAR
STARTCHAR C177
ENCODING 127
SWIDTH 1 0
DWIDTH 12 0
BBX 12 13 0 -3
BITMAP
0400
0400
0400
0400
0400
0400
0400
0400
0400
0400
0400
0400
0400
ENDCHAR
ENDFONT
